<svg width="20" height="20" viewBox="0 0 20 20" fill="none" xmlns="http://www.w3.org/2000/svg">
<g id="Group">
<path id="Vector" d="M19.9997 1.01192C19.9893 0.919999 19.9692 0.829441 19.9397 0.741758V0.651704C19.8917 0.540345 19.8239 0.438633 19.7396 0.351524C19.6546 0.271741 19.5564 0.207404 19.4494 0.161411H19.3593C19.2671 0.0909786 19.1616 0.0399251 19.0491 0.0113208H18.9991C18.8996 -0.00377359 18.7984 -0.00377359 18.6989 0.0113208L0.688162 6.01491C0.487974 6.08071 0.313669 6.20803 0.190098 6.37872C0.0665277 6.54941 0 6.75476 0 6.96548C0 7.1762 0.0665277 7.38155 0.190098 7.55224C0.313669 7.72293 0.487974 7.85025 0.688162 7.91605L9.22327 10.7577L12.065 19.2929C12.1308 19.493 12.2581 19.6673 12.4288 19.7909C12.5995 19.9145 12.8048 19.981 13.0155 19.981C13.2263 19.981 13.4316 19.9145 13.6023 19.7909C13.773 19.6673 13.9003 19.493 13.9661 19.2929L19.9697 1.28208C19.9919 1.19381 20.002 1.10292 19.9997 1.01192ZM15.2969 3.30329L9.72357 8.87662L4.15023 7.01551L15.2969 3.30329ZM12.9955 15.8608L11.1344 10.2875L16.7077 4.71413L12.9955 15.8608Z" fill="#38DFFF"></path>
</g>
</svg>